<svg width="339" height="62" viewBox="0 0 339 62" fill="none" xmlns="http://www.w3.org/2000/svg">
<rect width="338" height="60" transform="translate(0 1)" fill="white"/>
<rect width="338.462" height="60.9231" transform="translate(0 0.192314)" fill="#011627"/>
<path d="M51.7372 0.192314H59.9699L65.6383 30.8569L79.9444 0.192314H88.1771L88.4471 47.5769H81.0241L80.6192 15.8969L67.8652 43.1092H60.0374L54.8413 15.8969L45.5964 47.5769H38.1734L51.7372 0.192314Z" fill="#ECECEC"/>
<path d="M124.659 33.7H101.378C101.468 34.6477 101.693 35.5277 102.053 36.34C102.413 37.1523 102.885 37.8744 103.47 38.5062C104.865 39.9051 106.619 40.6046 108.734 40.6046C111.973 40.6046 114.65 39.6344 116.764 37.6939L121.15 43.2446C117.416 46.6744 112.918 48.3892 107.654 48.3892C103.02 48.3892 99.3537 46.6518 96.6545 43.1769C93.9102 39.7472 92.8755 35.5728 93.5503 30.6539C94.2252 25.6898 96.3846 21.4928 100.029 18.0631C103.583 14.6333 107.676 12.9185 112.31 12.9185C116.719 12.9185 120.138 14.6108 122.567 17.9954C124.952 21.3349 125.784 25.5544 125.064 30.6539L124.659 33.7ZM111.096 20.3646C109.026 20.3646 107.137 21.0415 105.427 22.3954C103.987 23.659 102.908 25.2836 102.188 27.2692H117.439C117.349 25.2385 116.786 23.5913 115.752 22.3277C114.717 21.019 113.165 20.3646 111.096 20.3646Z" fill="#ECECEC"/>
<path d="M132.727 13.7308H139.678L139.003 18.4692C139.228 18.2887 139.43 18.1082 139.61 17.9277C139.79 17.7021 139.97 17.5215 140.15 17.3862C141.41 16.258 142.692 15.3554 143.996 14.6785C146.291 13.5051 148.788 12.9185 151.487 12.9185L150.407 20.7031C147.438 20.7031 144.761 21.6508 142.377 23.5462C139.992 25.4867 138.395 28.0815 137.586 31.3308L135.291 47.5769H127.936L132.727 13.7308Z" fill="#ECECEC"/>
<path d="M164.761 37.6939L157.068 47.5769H148.093L161.252 30.6539L152.816 13.7308H161.656L166.718 23.6815L174.545 13.7308H183.386L170.159 30.7215L178.662 47.5769H169.754L164.761 37.6939Z" fill="#ECECEC"/>
<path d="M0 38.5865H40.8579L42.7031 31.4471L0 38.5865Z" fill="#ECECEC"/>
<path d="M91.2054 30.6539L42.7031 31.4471L40.8579 38.5865L91.2054 30.6539Z" fill="#011627"/>
<path d="M194.836 13.7308L194.296 17.7246C194.521 17.499 194.723 17.2733 194.903 17.0477C195.128 16.8221 195.353 16.619 195.578 16.4385C198.142 14.0918 201.269 12.9185 204.958 12.9185C209.547 12.9185 213.078 14.6333 215.553 18.0631C218.072 21.4928 218.994 25.6898 218.319 30.6539C217.645 35.5277 215.553 39.7246 212.044 43.2446C208.58 46.6744 204.553 48.3892 199.964 48.3892C196.5 48.3892 193.824 47.2385 191.934 44.9369C191.844 44.8015 191.732 44.6662 191.597 44.5308C191.507 44.3503 191.417 44.1698 191.327 43.9892L188.897 61.1154H181.542L188.155 13.7308H194.836ZM200.504 40.6723C203.069 40.6723 205.34 39.6795 207.32 37.6939C209.254 35.7533 210.424 33.4067 210.829 30.6539C211.234 27.901 210.716 25.5318 209.277 23.5462C207.837 21.6056 205.858 20.6354 203.338 20.6354C200.819 20.6354 198.592 21.6056 196.658 23.5462C194.723 25.4415 193.554 27.8108 193.149 30.6539C192.744 33.4518 193.239 35.821 194.633 37.7615C195.983 39.7021 197.94 40.6723 200.504 40.6723Z" fill="#EB4545"/>
<path d="M226.634 13.7308H233.585L232.91 18.4692C233.135 18.2887 233.338 18.1082 233.517 17.9277C233.697 17.7021 233.877 17.5215 234.057 17.3862C235.317 16.258 236.599 15.3554 237.904 14.6785C240.198 13.5051 242.695 12.9185 245.394 12.9185L244.314 20.7031C241.345 20.7031 238.669 21.6508 236.284 23.5462C233.9 25.4867 232.303 28.0815 231.493 31.3308L229.199 47.5769H221.843L226.634 13.7308Z" fill="#EB4545"/>
<path d="M276.888 33.7H253.607C253.697 34.6477 253.922 35.5277 254.282 36.34C254.642 37.1523 255.114 37.8744 255.699 38.5062C257.093 39.9051 258.848 40.6046 260.962 40.6046C264.201 40.6046 266.878 39.6344 268.993 37.6939L273.379 43.2446C269.645 46.6744 265.146 48.3892 259.883 48.3892C255.249 48.3892 251.582 46.6518 248.883 43.1769C246.139 39.7472 245.104 35.5728 245.779 30.6539C246.454 25.6898 248.613 21.4928 252.257 18.0631C255.811 14.6333 259.905 12.9185 264.539 12.9185C268.948 12.9185 272.367 14.6108 274.796 17.9954C277.18 21.3349 278.013 25.5544 277.293 30.6539L276.888 33.7ZM263.324 20.3646C261.255 20.3646 259.365 21.0415 257.656 22.3954C256.216 23.659 255.136 25.2836 254.417 27.2692H269.667C269.578 25.2385 269.015 23.5913 267.98 22.3277C266.946 21.019 265.394 20.3646 263.324 20.3646Z" fill="#EB4545"/>
<path d="M305.2 19.8231L297.912 22.3954C297.732 21.6282 297.35 21.019 296.765 20.5677C296.09 20.1615 295.303 19.9585 294.403 19.9585C293.233 19.9585 292.266 20.2744 291.501 20.9062C290.737 21.4928 290.287 22.26 290.152 23.2077C290.062 24.4262 290.939 25.3287 292.784 25.9154C293.233 26.0508 293.661 26.1862 294.066 26.3215C294.471 26.4118 294.853 26.5246 295.213 26.66C297.957 27.3369 300.049 28.4426 301.489 29.9769C303.378 32.0077 304.098 34.5574 303.648 37.6262C303.153 40.9656 301.511 43.6733 298.722 45.7492C296.428 47.5092 293.593 48.3892 290.219 48.3892C287.475 48.3441 285.158 47.6898 283.269 46.4262C281.244 45.0723 279.985 43.2672 279.49 41.0108L286.778 38.3708C287.363 40.2662 288.757 41.2139 290.962 41.2139C292.401 41.2139 293.593 40.8528 294.538 40.1308C295.528 39.3636 296.09 38.4385 296.225 37.3554C296.36 36.0467 295.303 35.0087 293.053 34.2415C292.694 34.061 292.289 33.9031 291.839 33.7677C291.434 33.6323 291.007 33.4969 290.557 33.3615C287.857 32.7298 285.788 31.5113 284.348 29.7062C282.954 27.901 282.436 25.7123 282.796 23.14C283.201 20.0262 284.618 17.5667 287.048 15.7615C289.477 13.9113 292.221 12.9636 295.28 12.9185C298.025 12.9185 300.252 13.5277 301.961 14.7462C303.581 15.9195 304.66 17.6118 305.2 19.8231Z" fill="#EB4545"/>
<path d="M333.273 19.8231L325.985 22.3954C325.806 21.6282 325.423 21.019 324.838 20.5677C324.163 20.1615 323.376 19.9585 322.476 19.9585C321.307 19.9585 320.34 20.2744 319.575 20.9062C318.81 21.4928 318.36 22.26 318.225 23.2077C318.135 24.4262 319.012 25.3287 320.857 25.9154C321.307 26.0508 321.734 26.1862 322.139 26.3215C322.544 26.4118 322.926 26.5246 323.286 26.66C326.03 27.3369 328.122 28.4426 329.562 29.9769C331.451 32.0077 332.171 34.5574 331.721 37.6262C331.227 40.9656 329.584 43.6733 326.795 45.7492C324.501 47.5092 321.667 48.3892 318.293 48.3892C315.548 48.3441 313.231 47.6898 311.342 46.4262C309.318 45.0723 308.058 43.2672 307.563 41.0108L314.851 38.3708C315.436 40.2662 316.83 41.2139 319.035 41.2139C320.474 41.2139 321.667 40.8528 322.611 40.1308C323.601 39.3636 324.163 38.4385 324.298 37.3554C324.433 36.0467 323.376 35.0087 321.127 34.2415C320.767 34.061 320.362 33.9031 319.912 33.7677C319.507 33.6323 319.08 33.4969 318.63 33.3615C315.931 32.7298 313.861 31.5113 312.422 29.7062C311.027 27.901 310.51 25.7123 310.87 23.14C311.275 20.0262 312.692 17.5667 315.121 15.7615C317.55 13.9113 320.295 12.9636 323.354 12.9185C326.098 12.9185 328.325 13.5277 330.034 14.7462C331.654 15.9195 332.734 17.6118 333.273 19.8231Z" fill="#EB4545"/>
<path d="M289.959 38.5865H338.462V30.6539L289.959 38.5865Z" fill="#011627"/>
</svg>
